<svg xmlns="http://www.w3.org/2000/svg" xmlns:xlink="http://www.w3.org/1999/xlink" viewBox="0 0 807.8 236.6"><defs><clipPath id="clip-path"><path d="M109.8,52.4v86.3l9.2-3.4V49.1Zm-70,86.3,9.2-3.4V49.1l-9.2,3.3Zm35-25.2,9.2-3.3V42.8l-9.2,3.3Z" style="fill:none"></path></clipPath><linearGradient id="linear-gradient" x1="99.57" y1="53.15" x2="129.23" y2="134.63" gradientUnits="userSpaceOnUse"><stop offset="0" stop-color="#1d1d1b"></stop><stop offset="0.38" stop-color="#1d1d1b"></stop><stop offset="0.6" stop-color="#393937" stop-opacity="0.88"></stop><stop offset="0.8" stop-color="#8d8d8c" stop-opacity="0.5"></stop><stop offset="0.96" stop-color="#fff" stop-opacity="0"></stop></linearGradient><linearGradient id="linear-gradient-2" x1="29.6" y1="53.15" x2="59.25" y2="134.63" xlink:href="#linear-gradient"></linearGradient><linearGradient id="linear-gradient-3" x1="67.62" y1="45.74" x2="91.21" y2="110.54" xlink:href="#linear-gradient"></linearGradient></defs><g style="isolation:isolate"><g id="Layer_1" data-name="Layer 1"><path d="M368.3,57.1l41.9,51.5V52.4h9.2v69.8h-9.7L362.2,63.8v58.4h-9.3V55.1c0-1.8,1.2-2.7,5.4-2.7A12,12,0,0,1,368.3,57.1Z" style="fill:#1d1d1b"></path><path d="M528.7,122.2l32.6-66.6c1.4-3,3.6-3.2,7-3.2h.3c3.4,0,5.6.2,7.1,3.2l32.5,66.6H597.9l-9-18.4H547.7l-8.8,18.4Zm22.8-26.5h33.6L568.3,61.1Z" style="fill:#1d1d1b"></path><path d="M184.1,51.3c23.8,0,40.9,15.1,40.9,36s-17.1,36.1-40.9,36.1-40.7-15.2-40.7-36.1S160.5,51.3,184.1,51.3Zm.1,63.5c18.3,0,31-11.3,31-27.5s-12.7-27.5-31-27.5-31,11.3-31,27.5S165.9,114.8,184.2,114.8Z" style="fill:#1d1d1b"></path><path d="M287.5,51.3c23.7,0,40.8,15.1,40.8,36s-17.1,36.1-40.8,36.1-40.8-15.2-40.8-36.1S263.8,51.3,287.5,51.3Zm.1,63.5c18.3,0,30.9-11.3,30.9-27.5s-12.6-27.5-30.9-27.5-31.1,11.3-31.1,27.5S269.3,114.8,287.6,114.8Z" style="fill:#1d1d1b"></path><path d="M681.1,66a60.4,60.4,0,0,0-27.5-6.3c-14,0-21.1,3.7-21.1,10.9s4.7,9.2,14.3,10.3l18.3,2.2c14.7,1.8,21.9,8.2,21.9,19.7,0,13.7-10.1,20.6-30.4,20.6a82.3,82.3,0,0,1-35.1-7.6l3.7-8.8c10.9,5.1,21.4,7.6,32,7.6,13.3,0,20.3-3.9,20.3-11.4s-4.9-9.6-15-10.9l-18.2-2.2C630.7,88.5,623,81.8,623,71c0-12.6,10.8-19.7,30.3-19.7a79.4,79.4,0,0,1,31.1,6.4Z" style="fill:#1d1d1b"></path><path d="M296.1,183.2a9.8,9.8,0,0,1-4,1.6,26.3,26.3,0,0,1-4.9.5,15.7,15.7,0,0,1-5.8-1,11.1,11.1,0,0,1-4.9-3.1,15.6,15.6,0,0,1-3.4-5.5,24.5,24.5,0,0,1-1.2-8.2,22.3,22.3,0,0,1,1.4-8.4,14.6,14.6,0,0,1,3.6-5.5,12.9,12.9,0,0,1,5-3,17,17,0,0,1,5.4-.9,24.1,24.1,0,0,1,5,.4l3.3.9-1.3,5.7a8.8,8.8,0,0,0-2.6-.8l-3.8-.2a7.8,7.8,0,0,0-6.5,2.9c-1.6,1.9-2.5,4.9-2.5,8.9a17.5,17.5,0,0,0,.6,4.8,11.1,11.1,0,0,0,1.8,3.8,8.9,8.9,0,0,0,3,2.4,10.3,10.3,0,0,0,4.1.8,13.1,13.1,0,0,0,3.7-.4,16.9,16.9,0,0,0,2.7-1.1Z" style="fill:#1d1d1b"></path><path d="M330.6,177H320.1l-2.6,7.6h-6.7l12.3-34.4h5l12.3,34.4h-7.1Zm-8.8-5.4h7.3l-2.5-7.6-1-5.3h-.3l-1,5.4Z" style="fill:#1d1d1b"></path><path d="M358.9,150.7l4.6-.6,4.9-.2a43.8,43.8,0,0,1,5.1.4,14.1,14.1,0,0,1,4.6,1.7,8.6,8.6,0,0,1,3.3,3.5,10.7,10.7,0,0,1,1.3,5.7,11.5,11.5,0,0,1-1.1,5.5,8.8,8.8,0,0,1-3,3.6,10.4,10.4,0,0,1-4.2,2.1,19.9,19.9,0,0,1-4.9.6h-3.9v11.8h-6.7Zm10,5h-1.8l-1.5.2V167h2.9l2.6-.2a8.5,8.5,0,0,0,2.4-.9,6,6,0,0,0,1.6-1.9,6.8,6.8,0,0,0,.6-3.1,5.3,5.3,0,0,0-.6-2.6,5,5,0,0,0-1.5-1.7,8.5,8.5,0,0,0-2.2-.9Z" style="fill:#1d1d1b"></path><path d="M403.2,150.4h6.7v34.2h-6.7Z" style="fill:#1d1d1b"></path><path d="M456.3,156.4h-9.9v28.2h-6.7V156.4h-10v-6h26.6Z" style="fill:#1d1d1b"></path><path d="M488.5,177H478l-2.6,7.6h-6.7L481,150.2h4.9l12.3,34.4h-7Zm-8.8-5.4H487l-2.5-7.6-1.1-5.3h-.2l-1,5.4Z" style="fill:#1d1d1b"></path><path d="M538.4,184.6H516.8V150.4h6.7v28.2h14.9Z" style="fill:#1d1d1b"></path><path d="M491,52.4c13.8,0,22.8,7.2,22.8,18.2a15.8,15.8,0,0,1-8.2,14.3v.4c6.8,3,10.8,9.2,10.8,17.3,0,12.1-9.4,19.6-25,19.6H449.2V52.4ZM458.7,114h33.5c9.2,0,14.8-4.5,14.8-11.9s-5.7-12-15.1-12H464.3l2.9-8h24.6c7.9,0,12.6-4.1,12.6-10.7s-4.8-10.7-12.8-10.7H458.7Z" style="fill:#1d1d1b"></path><path d="M767.9,52.4v8.3h-47V83h43.7l-2.9,8.1H720.9V114h49.6v8.2H711.4V52.4Z" style="fill:#1d1d1b"></path><path d="M109.8,52.4v86.3l9.2-3.4V49.1Zm-70,86.3,9.2-3.4V49.1l-9.2,3.3Zm35-25.2,9.2-3.3V42.8l-9.2,3.3Z" style="fill:#ffcd00"></path><g style="clip-path:url(#clip-path)"><polygon points="107 50.5 121.8 45.1 121.8 137.3 107 142.7 107 50.5" style="mix-blend-mode:multiply;fill:url(#linear-gradient)"></polygon><polygon points="37 50.5 51.8 45.1 51.8 137.3 37 142.7 37 50.5" style="mix-blend-mode:multiply;fill:url(#linear-gradient-2)"></polygon><polygon points="72 44.1 86.8 38.7 86.8 112.1 72 117.5 72 44.1" style="mix-blend-mode:multiply;fill:url(#linear-gradient-3)"></polygon></g></g></g></svg>